<?xml version="1.0" encoding="UTF-8"?>
<svg
      width="100"
      height="100"
      viewBox="0 0 50 50"
      xmlns="http://www.w3.org/2000/svg"
      fill="#ffffff"
    >
      <g
        transform="matrix(5.62773327999758,0,0,5.62773327999758,-1.6883183738918675,-31.9655294313465)"
      >
        <path d="M9.65 10.07 q-0.87 -0.53 -1.69 -0.53 t-1.49 0.43 t-1.04 1.19 t-0.37 1.72 t0.37 1.73 t1.04 1.21 t1.49 0.44 q0.76 0 1.63 -0.45 t1.55 -1.19 l2.68 2.86 q-1.18 1.3 -2.83 2.07 t-3.27 0.77 q-2.12 0 -3.81 -0.95 t-2.65 -2.64 t-0.96 -3.79 q0 -2.08 0.98 -3.73 t2.71 -2.59 t3.91 -0.94 q1.6 0 3.22 0.71 t2.7 1.89 l-2.68 3.18 q-0.62 -0.86 -1.49 -1.39 z"></path>
      </g>
    </svg>